<svg version="1.1" xmlns="http://www.w3.org/2000/svg" style="display: block;" viewBox="96.28 208.3 1795.8438438438438 750.4710280373831" width="876" height="366" preserveAspectRatio="none" xmlns:xlink="http://www.w3.org/1999/xlink">
<path transform="translate(0,0)" fill="rgb(253,252,235)" d="M 0 0 L 2048 0 L 2048 1097 L 0 1097 L 0 0 z"/>
<path transform="translate(0,0)" fill="rgb(1,1,1)" d="M 548.814 249.155 C 561.047 225.059 583.18 210.53 609.68 224.181 C 620.132 229.578 627.953 238.979 631.359 250.238 C 634.886 261.834 633.575 274.363 627.724 284.977 C 623.428 292.912 618.658 297.444 612.015 303.292 C 619.961 312.679 641.796 339.33 642.847 353.092 C 643.018 355.322 640.545 357.958 638.836 359.456 C 639.6 360.813 642.149 365.119 642.571 366.311 C 648.296 367.947 657.661 371.091 659.141 377.824 C 657.748 381.774 655.918 382.867 651.719 383.666 C 651.622 386.701 652.487 387.941 653.817 390.598 L 655.065 391.37 C 658.96 392.399 661.562 392.723 664.402 395.559 C 665.683 399.281 665.625 400.787 663.131 404.241 L 663.154 408.033 L 664.822 409.114 C 677.801 415.979 682.329 430.169 686.716 443.455 C 696.119 471.928 693.929 501.734 685.829 530.435 C 734.99 559.345 729.944 601.74 729.955 652.237 L 729.924 723.184 C 730.005 749.312 729.907 775.44 729.632 801.567 C 729.247 833.343 732.136 857.614 713.159 884.756 C 727.103 889.076 793.577 892.795 793.222 911.675 C 774.796 934.603 634.416 937.48 603.568 938.374 C 540.962 940.145 478.327 940.68 415.7 939.978 C 370.863 940.205 326.026 939.55 281.215 938.015 C 256.758 937.38 113.909 934.501 110.21 910.366 C 114.803 893.379 172.366 892.778 186.843 886.682 C 179.042 876.696 172.997 864.349 171.976 851.598 C 168.667 810.286 169.809 768.301 169.796 726.815 L 169.795 656.637 C 169.802 610.084 165.58 564.946 205.913 533.214 C 218.006 523.699 226.873 521.013 241.524 517.006 C 240.247 508.691 238.33 496.12 238.804 487.008 C 239.973 464.525 250.438 432.647 265.971 415.843 C 268.625 412.972 271.546 412.989 275.049 413.119 L 276.606 412.342 C 278.709 409.123 279.106 408.576 280.151 404.783 C 274.942 403.202 271.625 402.904 270.521 396.898 C 272.823 389.815 277.624 390.698 283.825 391.302 C 285.31 388.436 288.135 384.018 287.757 381.099 C 285.311 380.142 284.438 379.622 282.197 378.237 C 278.85 371.899 282.652 370.178 288.077 367.148 C 297.438 366.807 297.005 364.135 301.56 356.255 C 301.065 355.856 300.579 355.446 300.102 355.025 C 288.043 344.488 320.261 309.622 327.776 301.292 C 306.909 279.611 302.027 246.075 328.915 227.172 C 338.251 220.672 349.83 218.251 360.988 220.467 C 377.685 223.662 386.732 234.025 395.596 247.191 C 404.517 242.952 428.997 230.763 439.684 233.664 C 442.389 234.399 443.294 237.449 444.424 239.863 L 449.245 241.017 C 448.971 234.697 447.539 226.611 454.307 223.334 C 462.436 224.696 461.498 233.073 461.97 239.78 C 465.26 240.111 466.929 240.396 470.277 239.887 L 471.704 237.92 C 472.21 231.396 472.532 222.603 480.288 221.114 L 482.535 222.815 C 484.51 226.546 484.108 228.505 483.895 232.728 C 483.959 236.997 483.287 238.506 485.132 241.742 C 487.806 242.713 488.834 243.023 491.631 243.524 C 492.851 240.175 493.619 236.798 496.394 234.706 C 508.12 233.11 537.493 244.366 548.814 249.155 z"/>
<path transform="translate(0,0)" fill="rgb(208,170,136)" d="M 548.814 249.155 C 561.047 225.059 583.18 210.53 609.68 224.181 C 620.132 229.578 627.953 238.979 631.359 250.238 C 634.886 261.834 633.575 274.363 627.724 284.977 C 623.428 292.912 618.658 297.444 612.015 303.292 C 619.961 312.679 641.796 339.33 642.847 353.092 C 643.018 355.322 640.545 357.958 638.836 359.456 C 639.6 360.813 642.149 365.119 642.571 366.311 C 648.296 367.947 657.661 371.091 659.141 377.824 C 657.748 381.774 655.918 382.867 651.719 383.666 C 651.622 386.701 652.487 387.941 653.817 390.598 L 655.065 391.37 C 658.96 392.399 661.562 392.723 664.402 395.559 C 665.683 399.281 665.625 400.787 663.131 404.241 L 663.154 408.033 L 664.822 409.114 C 661.933 411.345 661.23 411.724 660.33 415.421 C 660.399 419.698 668.475 430.422 670.883 439.297 C 674.099 450.485 677.918 462.572 678.178 474.451 C 678.797 502.748 674.236 534.661 655.209 557.014 C 637.186 578.188 587.462 584.113 584.268 547.963 C 583.593 540.33 596.402 528.242 584.05 524.761 C 573.477 526.946 570.716 544.72 570.647 553.805 C 547.905 555.579 523.452 557.712 500.701 558.007 C 466.079 558.457 431.17 554.486 396.766 553.349 C 398.726 538.771 395.214 527.768 386.352 516.004 C 382.238 510.543 375.131 501.648 368.966 510.269 C 368.808 517.09 396.481 546.471 375.862 562.732 C 339.321 591.551 283.612 554.562 279.857 512.735 C 279.021 503.414 287.368 488.409 282.438 480.459 C 267.562 479.238 266.36 508.666 266.305 518.739 L 256.947 517.396 C 248.344 484.687 256.678 460.707 271.076 430.828 C 273.193 426.436 277.005 422.869 277.973 417.981 C 277.003 415.56 276.681 415.168 275.049 413.119 L 276.606 412.342 C 278.709 409.123 279.106 408.576 280.151 404.783 C 274.942 403.202 271.625 402.904 270.521 396.898 C 272.823 389.815 277.624 390.698 283.825 391.302 C 285.31 388.436 288.135 384.018 287.757 381.099 C 285.311 380.142 284.438 379.622 282.197 378.237 C 278.85 371.899 282.652 370.178 288.077 367.148 C 297.438 366.807 297.005 364.135 301.56 356.255 C 301.065 355.856 300.579 355.446 300.102 355.025 C 288.043 344.488 320.261 309.622 327.776 301.292 C 306.909 279.611 302.027 246.075 328.915 227.172 C 338.251 220.672 349.83 218.251 360.988 220.467 C 377.685 223.662 386.732 234.025 395.596 247.191 C 404.517 242.952 428.997 230.763 439.684 233.664 C 442.389 234.399 443.294 237.449 444.424 239.863 L 449.245 241.017 C 448.971 234.697 447.539 226.611 454.307 223.334 C 462.436 224.696 461.498 233.073 461.97 239.78 C 465.26 240.111 466.929 240.396 470.277 239.887 L 471.704 237.92 C 472.21 231.396 472.532 222.603 480.288 221.114 L 482.535 222.815 C 484.51 226.546 484.108 228.505 483.895 232.728 C 483.959 236.997 483.287 238.506 485.132 241.742 C 487.806 242.713 488.834 243.023 491.631 243.524 C 492.851 240.175 493.619 236.798 496.394 234.706 C 508.12 233.11 537.493 244.366 548.814 249.155 z"/>
<path transform="translate(0,0)" fill="rgb(1,1,1)" d="M 548.814 249.155 C 561.047 225.059 583.18 210.53 609.68 224.181 C 620.132 229.578 627.953 238.979 631.359 250.238 C 634.886 261.834 633.575 274.363 627.724 284.977 C 623.428 292.912 618.658 297.444 612.015 303.292 C 619.961 312.679 641.796 339.33 642.847 353.092 C 643.018 355.322 640.545 357.958 638.836 359.456 C 632.22 357.553 630.75 355.664 627.646 349.717 C 621.994 338.89 616.484 327.882 610.283 317.355 C 606.037 310.147 599.576 304.233 594.995 297.142 C 593.708 294.042 583.418 283.836 579.893 283.067 C 574.976 280.375 574.149 279.672 570.74 275.288 C 569.118 270.326 562.747 267.185 558.178 264.493 C 555.349 267.225 553.593 268.343 549.758 266.58 C 536.463 260.467 523.347 251.829 509.138 248.175 C 505.681 247.286 503.255 249.899 500.911 251.861 C 497.925 252.652 497.461 252.837 494.63 251.699 C 492.201 249.387 492.224 246.952 491.631 243.524 C 492.851 240.175 493.619 236.798 496.394 234.706 C 508.12 233.11 537.493 244.366 548.814 249.155 z"/>
<path transform="translate(0,0)" fill="rgb(176,127,91)" d="M 558.178 264.493 C 560.577 254.622 566.477 243.449 575.485 238.125 C 581.849 234.282 589.484 233.14 596.694 234.954 C 604.445 237.044 611.058 242.11 615.093 249.05 C 618.815 255.377 619.774 262.955 617.745 270.009 C 613.108 286.738 603.615 288.243 594.995 297.142 C 593.708 294.042 583.418 283.836 579.893 283.067 C 574.976 280.375 574.149 279.672 570.74 275.288 C 569.118 270.326 562.747 267.185 558.178 264.493 z"/>
<path transform="translate(0,0)" fill="rgb(1,1,1)" d="M 570.74 275.288 C 576.051 268.047 587.216 250.921 597.326 256.497 C 601.501 266.122 587.343 279.495 579.893 283.067 C 574.976 280.375 574.149 279.672 570.74 275.288 z"/>
<path transform="translate(0,0)" fill="rgb(1,1,1)" d="M 327.776 301.292 C 306.909 279.611 302.027 246.075 328.915 227.172 C 338.251 220.672 349.83 218.251 360.988 220.467 C 377.685 223.662 386.732 234.025 395.596 247.191 C 404.517 242.952 428.997 230.763 439.684 233.664 C 442.389 234.399 443.294 237.449 444.424 239.863 C 439.173 247.045 422.77 248.854 414.458 253.449 C 407.93 257.058 400.254 260.341 393.619 263.977 C 391.631 264.928 388.707 262.189 387.32 260.906 C 383.322 262.946 375.044 268.941 372.444 272.573 C 369.967 276.944 368.082 278.37 363.505 280.732 C 357.633 285.513 350.5 292.478 345.697 298.336 C 336.298 309.023 329.478 317.861 321.839 329.972 C 317.518 336.823 309.275 355.599 301.56 356.255 C 301.065 355.856 300.579 355.446 300.102 355.025 C 288.043 344.488 320.261 309.622 327.776 301.292 z"/>
<path transform="translate(0,0)" fill="rgb(176,127,91)" d="M 345.697 298.336 C 337.149 290.059 329.399 282.886 326.372 271.109 C 319.312 243.635 348.274 224.421 371.381 240.219 C 377.144 244.159 385.819 254.301 387.32 260.906 C 383.322 262.946 375.044 268.941 372.444 272.573 C 369.967 276.944 368.082 278.37 363.505 280.732 C 357.633 285.513 350.5 292.478 345.697 298.336 z"/>
<path transform="translate(0,0)" fill="rgb(1,1,1)" d="M 363.505 280.732 C 356.697 275.255 341.409 264.523 344.901 254.748 C 355.801 249.307 367.178 264.717 372.444 272.573 C 369.967 276.944 368.082 278.37 363.505 280.732 z"/>
<path transform="translate(0,0)" fill="rgb(1,1,1)" d="M 449.245 241.017 C 448.971 234.697 447.539 226.611 454.307 223.334 C 462.436 224.696 461.498 233.073 461.97 239.78 C 461.881 245.764 462.326 251.582 454.746 252.033 C 449.495 248.685 449.958 247.067 449.245 241.017 z"/>
<path transform="translate(0,0)" fill="rgb(1,1,1)" d="M 471.704 237.92 C 472.21 231.396 472.532 222.603 480.288 221.114 L 482.535 222.815 C 484.51 226.546 484.108 228.505 483.895 232.728 C 482.994 240.181 483.422 245.569 477.619 251.238 L 474.454 250.883 C 471.56 245.671 471.726 243.952 471.704 237.92 z"/>
<path transform="translate(0,0)" fill="rgb(1,1,1)" d="M 642.571 366.311 C 648.296 367.947 657.661 371.091 659.141 377.824 C 657.748 381.774 655.918 382.867 651.719 383.666 C 647.44 380.451 640.458 378.96 639.234 373.081 C 639.473 369.749 640.522 368.85 642.571 366.311 z"/>
<path transform="translate(0,0)" fill="rgb(1,1,1)" d="M 280.151 404.783 C 274.942 403.202 271.625 402.904 270.521 396.898 C 272.823 389.815 277.624 390.698 283.825 391.302 C 286.533 392.947 288.309 393.633 289.383 396.654 C 288.855 402.463 285.62 403.606 280.151 404.783 z"/>
<path transform="translate(0,0)" fill="rgb(1,1,1)" d="M 288.077 367.148 C 291.874 367.51 294.758 367.368 297.591 369.861 C 299.207 372.793 298.997 371.459 298.261 374.891 C 295.119 379.125 292.93 379.597 287.757 381.099 C 285.311 380.142 284.438 379.622 282.197 378.237 C 278.85 371.899 282.652 370.178 288.077 367.148 z"/>
<path transform="translate(0,0)" fill="rgb(1,1,1)" d="M 655.065 391.37 C 658.96 392.399 661.562 392.723 664.402 395.559 C 665.683 399.281 665.625 400.787 663.131 404.241 C 657.363 404.335 646.29 403.244 648.396 395.01 C 650.906 392.507 651.806 392.373 655.065 391.37 z"/>
<path transform="translate(0,0)" fill="rgb(176,127,91)" d="M 455.243 404.339 C 473.553 401.329 497.27 404.236 511.648 416.338 C 529.254 431.056 538.879 456.332 540.613 479.07 C 543.646 518.83 522.158 534.799 486.719 537.832 C 445.757 538.461 393.876 539.825 397.756 480.278 C 399.982 446.125 416.892 408.819 455.243 404.339 z"/>
<path transform="translate(0,0)" fill="rgb(1,1,1)" d="M 466.499 448.681 C 470.22 448.655 472.385 448.203 475.228 450.618 C 476.6 452.744 477.55 458.205 477.355 460.683 C 476.339 473.609 482.043 510.489 474.265 519.047 C 471.009 519.101 465.445 518.828 464.835 514.861 C 462.808 501.697 461.372 459.049 466.499 448.681 z"/>
<path transform="translate(0,0)" fill="rgb(1,1,1)" d="M 488.74 427.783 C 492.634 427.835 493.49 427.706 496.952 429.602 C 502.32 437.096 491.461 444.318 485.941 448.236 C 482.54 448.992 480.575 448.728 477.571 447.222 C 473.143 440.016 483.722 431.867 488.74 427.783 z"/>
<path transform="translate(0,0)" fill="rgb(1,1,1)" d="M 447.226 427.771 C 456.321 428.192 470.764 439.217 461.422 449.626 C 454.103 448.476 443.548 442.331 442.84 434.054 C 443.556 430.624 444.647 430.005 447.226 427.771 z"/>
<path transform="translate(0,0)" fill="rgb(1,1,1)" d="M 556.633 384.107 C 577.136 385.682 577.845 403.878 558.856 410.336 C 539.541 410.857 535.312 390.009 556.633 384.107 z"/>
<path transform="translate(0,0)" fill="rgb(1,1,1)" d="M 377.144 385.201 C 396.733 386.155 401.811 403.514 383.151 411.224 C 363.358 411.136 356.725 390.569 377.144 385.201 z"/>
<path transform="translate(0,0)" fill="rgb(237,210,184)" d="M 186.843 886.682 C 187.16 887.016 187.48 887.347 187.803 887.675 C 217.01 917.163 241.722 914.528 280.345 914.22 C 298.879 914.021 317.416 914.003 335.951 914.165 L 624.142 914.555 C 663.278 914.767 683.791 913.811 713.159 884.756 C 727.103 889.076 793.577 892.795 793.222 911.675 C 774.796 934.603 634.416 937.48 603.568 938.374 C 540.962 940.145 478.327 940.68 415.7 939.978 C 370.863 940.205 326.026 939.55 281.215 938.015 C 256.758 937.38 113.909 934.501 110.21 910.366 C 114.803 893.379 172.366 892.778 186.843 886.682 z"/>
<path transform="translate(0,0)" fill="rgb(237,210,184)" d="M 214.168 545.904 C 226.326 533.99 238.342 528.171 255.675 527.808 C 271.919 527.469 272.626 538.808 280.289 550.847 C 293.521 571.416 315.606 584.616 339.988 586.529 C 362.232 588.478 377.827 582.365 392.244 565.632 C 404.162 568.478 422.439 569.693 434.781 570.577 C 470.593 573.141 506.434 573.872 542.241 570.977 C 553.523 570.065 564.768 570.361 576.04 568.248 C 597.248 600.185 643.317 590.295 667.319 567.178 C 673.427 560.769 677.721 552.813 682.068 545.165 C 720.66 568.958 714.018 610.934 714.056 650.118 L 713.909 743.123 L 713.892 802.474 C 713.854 818.085 713.776 832.629 711.869 848.262 C 708.239 878.009 681.872 897.631 652.874 898.091 C 624.399 898.544 595.236 897.728 566.459 897.774 C 498.306 898.149 430.152 898.057 362.001 897.498 C 337.221 897.372 312.441 897.506 287.664 897.9 C 271.618 898.172 253.172 899.196 237.386 897.594 C 224.606 896.297 211.031 889.361 201.544 880.866 C 187.249 868.068 186.118 844.963 185.782 826.606 C 185.089 788.731 185.683 750.407 185.626 712.427 C 185.416 686.899 185.484 661.369 185.83 635.842 C 186.362 591.99 182.946 579.022 214.168 545.904 z"/>
<path transform="translate(0,0)" fill="rgb(208,170,136)" d="M 682.068 545.165 C 720.66 568.958 714.018 610.934 714.056 650.118 L 713.909 743.123 L 713.892 802.474 C 713.854 818.085 713.776 832.629 711.869 848.262 C 708.239 878.009 681.872 897.631 652.874 898.091 C 624.399 898.544 595.236 897.728 566.459 897.774 C 498.306 898.149 430.152 898.057 362.001 897.498 C 337.221 897.372 312.441 897.506 287.664 897.9 C 271.618 898.172 253.172 899.196 237.386 897.594 C 224.606 896.297 211.031 889.361 201.544 880.866 C 187.249 868.068 186.118 844.963 185.782 826.606 C 185.089 788.731 185.683 750.407 185.626 712.427 C 185.416 686.899 185.484 661.369 185.83 635.842 C 186.362 591.99 182.946 579.022 214.168 545.904 C 209.778 588.704 208.775 629.738 210.722 673.577 C 211.822 698.33 208.038 750.83 222.929 772.379 C 233.334 787.435 280.143 784.908 299.021 785.392 L 387.123 787.413 C 466.115 789.619 546.268 795.661 624.739 784.824 C 628.709 784.275 632.839 782.52 636.759 781.573 C 681.857 770.685 671.511 705.183 672.27 668.561 C 672.828 641.674 672.965 593.969 667.319 567.178 C 673.427 560.769 677.721 552.813 682.068 545.165 z"/>
<path transform="translate(0,0)" fill="rgb(1,1,1)" d="M 285.199 620.881 C 288.33 621.886 288.67 622.089 291.05 624.358 C 292.23 628.503 291.088 630.305 287.386 632.689 C 277.308 639.181 265.501 643.74 254.846 649.368 C 263.611 654.499 283.907 662.724 288.838 670.399 C 289.239 673.785 289.59 672.461 287.408 675.32 C 283.988 677.151 283.352 676.993 279.571 676.554 C 268.078 670.856 256.257 664.604 244.989 658.437 C 239.93 655.669 236.341 652.513 237.744 646.495 C 242.783 639.656 275.463 625.537 285.199 620.881 z"/>
<path transform="translate(0,0)" fill="rgb(1,1,1)" d="M 347.992 621.381 C 353.34 622.219 405.134 645.288 392.932 653.781 C 384.763 659.467 363.708 668.509 353.5 673.031 C 347.472 675.641 346.705 677.164 341.092 673.118 C 338.215 665.163 351.991 660.534 357.85 657.709 C 364.108 654.691 369.982 652.23 376.088 648.731 C 368.387 644.336 346.325 635.694 344.473 627.558 C 344.747 624.353 345.803 623.634 347.992 621.381 z"/>
<path transform="translate(0,0)" fill="rgb(1,1,1)" d="M 328.23 607.445 C 332.647 607.923 334.224 608.342 336.356 612.093 C 336.567 618.9 309.373 681.996 304.262 689.383 C 299.329 689.073 298.158 688.807 295.42 684.991 C 294.77 679.757 323.325 613.828 328.23 607.445 z"/>
<path transform="translate(0,0)" fill="rgb(1,1,1)" d="M 954.444 456.372 C 960.718 454.862 971.453 457.161 977.294 459.575 C 999.166 468.613 1007.05 497.851 998.132 518.564 C 995.091 525.631 988.278 526.715 981.989 523.499 C 974.913 519.96 978.621 509.22 979.014 502.561 C 980.106 494.892 980.247 477.841 970.71 474.555 C 942.552 464.852 911.243 508.077 902.763 528.636 C 889.76 560.161 876.843 612.855 915.824 630.147 C 937.952 639.963 968.781 619.59 985.17 605.954 C 992.618 599.954 1003.29 588.955 1012.03 585.191 C 1016.25 585.251 1015.85 586.004 1019.99 588.976 C 1021.74 587.101 1022.9 584.302 1023.78 581.803 C 1033.25 555.157 1073.36 516.316 1100.28 544.413 C 1109.06 553.581 1109.14 542.496 1119.85 553.229 C 1116.62 573.211 1105.7 601.539 1111.63 620.454 C 1125.1 635.627 1147.49 595.868 1156.74 587.167 C 1150.52 603.745 1142.47 630.464 1124.1 636.922 C 1102.93 644.362 1093.39 627.946 1087.6 610.435 C 1080.77 620.449 1074.13 627.944 1064.38 635.102 C 1041.92 651.592 1016.82 640.114 1016.36 612 C 1016.23 604.169 1017.34 599.745 1018.94 592.041 C 997.122 619.133 972.046 644.211 935.577 649.291 C 918.471 651.781 897.76 646.725 884.328 635.334 C 842.305 599.695 857.582 532.273 888.197 494.62 C 907.157 471.302 925.281 459.654 954.444 456.372 z"/>
<path transform="translate(0,0)" fill="rgb(253,252,235)" d="M 1079.39 556.001 C 1084.18 555.545 1085.87 555.768 1089.85 558.426 C 1090.68 559.948 1091.97 561.641 1091.35 563.256 C 1084.73 580.606 1067.7 609.14 1053.73 620.127 C 1049.56 622.271 1049.67 623.053 1045.67 622.757 L 1044.05 620.419 C 1040.41 601.181 1061.85 565.687 1079.39 556.001 z"/>
<path transform="translate(0,0)" fill="rgb(132,133,132)" d="M 1012.03 587.999 L 1012.45 588.44 L 1012.39 589.88 C 1007.29 594.646 1002.11 599.336 996.865 603.948 L 996.248 603.133 C 998.336 598.891 1008.05 591.034 1012.03 587.999 z"/>
<path transform="translate(0,0)" fill="rgb(1,1,1)" d="M 1674.67 531.004 C 1698.34 532.266 1690 554.747 1686.34 569.742 C 1698.22 552.983 1716.79 533.514 1739.5 539.965 C 1743.86 541.203 1753.38 547.482 1750.78 553.187 C 1742.75 558.607 1732.32 554.22 1723.34 557.827 C 1701.08 566.773 1688.35 591.133 1680.95 612.585 C 1677.83 621.645 1675.88 632.596 1672.04 640.501 C 1664.91 644.354 1659.44 639.512 1653.68 635.493 C 1649.86 621.79 1651.62 615.71 1653.41 601.85 C 1642.95 622.429 1640.3 633.798 1615.82 639.645 C 1597.52 633.902 1593.05 627.487 1588.39 609.525 C 1584.6 615.757 1580.43 620.308 1575.69 625.812 C 1562.88 639.144 1545.37 650.306 1528.22 637.802 C 1522.42 633.879 1517.88 626.665 1517.08 619.39 C 1513.31 585.317 1541.48 541.477 1575.93 534.83 C 1591.89 531.751 1594.73 541.217 1605.74 548.403 C 1606.85 549.127 1612.28 545.626 1618.51 550.45 C 1619.01 551.412 1620.26 553.988 1620.09 555.219 C 1618.03 570.057 1592.49 649.498 1632.96 617.095 C 1639.13 612.154 1644.66 603.731 1649.31 597.111 C 1650.47 597.071 1651.18 597.056 1652.31 597.161 L 1653.22 597.25 C 1661.43 581.385 1660.81 539.582 1674.67 531.004 z"/>
<path transform="translate(0,0)" fill="rgb(253,252,235)" d="M 1580.04 556.013 C 1583.62 555.743 1587.73 555.372 1590.51 557.671 C 1596.52 570.351 1564.05 611.896 1552.86 621.569 L 1545.59 626.594 C 1542.54 602.183 1557.27 566.87 1580.04 556.013 z"/>
<path transform="translate(0,0)" fill="rgb(1,1,1)" d="M 1445.55 442.979 C 1446.31 442.987 1447.07 443.002 1447.82 443.024 C 1454.55 443.222 1462.82 445.855 1460.58 454.336 C 1450.7 491.804 1435.74 525.86 1430.18 564.633 C 1439.23 552.434 1449.5 540.321 1464.95 536.196 C 1473.36 533.892 1482.34 535.166 1489.78 539.715 C 1514.39 554.583 1513.34 583.264 1499.58 605.397 C 1487.62 624.822 1468.49 638.754 1446.33 644.177 C 1434.64 641.094 1431.66 640.562 1425.03 630.201 C 1440.57 627.5 1444.91 625.044 1457.32 615.297 C 1462.72 610.729 1467.54 605.51 1471.66 599.758 C 1479.1 589.46 1487 573.335 1484.76 560.452 C 1483.56 553.555 1481.17 552.12 1475.7 548.22 C 1445.9 557.211 1433.62 584.925 1425.75 612.696 C 1423.15 621.88 1423.94 641.66 1415.12 646.171 C 1408.13 646.914 1399.09 633.626 1398.35 628.512 C 1392.55 588.445 1413.38 464.461 1445.55 442.979 z"/>
<path transform="translate(0,0)" fill="rgb(1,1,1)" d="M 1179.53 524.159 C 1205.02 522.701 1199.46 537.705 1194.67 555.681 C 1209.88 537.054 1229.41 527.08 1251.44 542.382 C 1298.34 574.96 1241.78 635.598 1203.96 643.458 C 1196.45 645.02 1183.34 638.874 1182.63 630.986 C 1184.43 627.869 1193.56 628.339 1197.77 626.541 C 1218.43 617.699 1258.5 575.566 1240.83 551.502 C 1218.52 537.129 1199.47 568.08 1191.83 585.402 C 1186.31 597.933 1183.07 611.696 1184.03 625.436 L 1181.24 627.067 C 1173.95 638.773 1169.35 697.893 1167.53 713.827 C 1164.91 714.928 1162.17 716.088 1159.48 717.013 C 1156.6 718.005 1153.46 718.13 1150.74 716.559 C 1148.24 715.11 1146.68 712.584 1145.99 709.937 C 1138.51 681.006 1166.58 545.934 1179.53 524.159 z"/>
<path transform="translate(0,0)" fill="rgb(1,1,1)" d="M 1803.67 535.262 C 1827.35 533.178 1828.67 547.323 1834.65 548.463 C 1837.55 549.014 1840.77 546.998 1844.15 548.06 C 1858.62 552.599 1832.32 603.508 1841.52 620.696 C 1842.64 622.801 1844.32 624.249 1846.69 624.724 C 1863.55 628.1 1871.44 602.007 1882.22 595.75 L 1883.12 596.557 C 1883.15 602.112 1881.02 607.962 1878.38 612.813 C 1869.11 629.812 1858.93 643.788 1837.55 637.837 C 1836.23 637.154 1834.94 636.43 1833.67 635.665 C 1823.31 629.355 1820.87 619.894 1818.22 609.079 L 1817.89 609.641 C 1809.58 623.158 1795.69 638.843 1779.63 642.487 C 1763.64 646.113 1750.85 638.107 1748.13 621.674 C 1742.63 588.343 1769.59 542.008 1803.67 535.262 z"/>
<path transform="translate(0,0)" fill="rgb(253,252,235)" d="M 1811.08 556.057 C 1814.42 556.075 1817.99 556.022 1820.34 558.398 C 1824.86 570.652 1793.3 612.666 1782.11 622.325 C 1780.1 623.785 1779.81 623.823 1777.43 624.629 L 1775.8 623.343 C 1771.46 610.798 1783.59 583.384 1791.12 572.696 C 1796.83 564.594 1801.83 559.479 1811.08 556.057 z"/>
<path transform="translate(0,0)" fill="rgb(1,1,1)" d="M 1292.37 538.789 C 1336.59 536.317 1294.72 603.87 1313.93 614.111 C 1327.68 612.712 1352.84 553.838 1362.97 542.458 C 1366.71 538.261 1377.99 540.032 1380.73 545.263 C 1380.98 557.675 1348 638.116 1340.71 653.856 C 1335.99 664.139 1330.71 674.153 1324.89 683.852 C 1314.47 700.194 1286.27 734.307 1263.94 720.856 C 1258.35 717.491 1254.35 712.03 1252.81 705.69 C 1251.98 702.079 1252.05 697.169 1254.37 694.214 C 1264.54 681.253 1265.05 699.742 1270.08 703.778 C 1293.59 707.686 1316.39 651.353 1324.32 633.167 C 1322.07 633.929 1319.76 634.53 1317.41 634.966 C 1314.47 635.497 1310.53 635.281 1307.75 634.183 C 1280.15 623.28 1281.64 584.921 1285.67 560.749 C 1286.74 554.317 1288.83 543.632 1292.37 538.789 z"/>
</svg>